<svg width="244" height="249" viewBox="0 0 244 249" fill="none" xmlns="http://www.w3.org/2000/svg">
<path d="M198.23 32.5043L220.617 54.8303C222.419 52.1941 224.033 44.9371 216.074 36.999C208.114 29.0609 200.862 30.695 198.23 32.5043Z" fill="url(#paint0_linear_155:527)"/>
<path d="M196.717 54.2998C196.352 55.5849 197.541 56.7707 198.825 56.4024L208.078 53.7483C209.326 53.3901 209.731 51.8222 208.811 50.9049L202.187 44.2989C201.267 43.3816 199.7 43.7902 199.346 45.0398L196.717 54.2998Z" fill="url(#paint1_linear_155:527)"/>
<path d="M187.85 72.9198C186.298 74.4761 181.745 75.0609 179.536 75.2574C178.868 75.3168 178.315 74.7816 178.35 74.112C178.471 71.8484 178.907 67.1213 180.467 65.5569C182.547 63.4719 185.885 63.4298 187.924 65.463C189.963 67.4962 189.93 70.8347 187.85 72.9198Z" fill="url(#paint2_linear_155:527)"/>
<path d="M191.502 53.3556C190.895 52.7508 189.913 52.7521 189.308 53.3586L186.036 56.64C185.431 57.2464 185.432 58.2283 186.039 58.8331L193.845 66.6184C194.452 67.2232 195.433 67.2219 196.038 66.6154L199.311 63.334C199.916 62.7276 199.914 61.7457 199.308 61.1409L191.502 53.3556Z" fill="url(#paint3_linear_155:527)"/>
<path d="M156.417 64.3146C157.366 63.3631 158.907 63.361 159.859 64.31L188.915 93.2878C189.866 94.2368 189.868 95.7776 188.919 96.7291L186.427 99.2287C185.478 100.18 183.937 100.182 182.985 99.2334L153.929 70.2555C152.978 69.3065 152.975 67.7658 153.924 66.8142L156.417 64.3146Z" fill="url(#paint4_linear_155:527)"/>
<path d="M155.262 83.1132L150.854 86.4192C150.112 86.9756 150.495 88.156 151.422 88.1711L154.975 88.229C155.332 88.2348 155.658 88.4363 155.823 88.7537L157.902 92.7588C157.951 92.8532 158.015 92.9389 158.092 93.0125L161.785 96.5573C161.972 96.7375 162.08 96.9853 162.084 97.2454L162.174 103.509C162.186 104.348 163.182 104.78 163.802 104.216L170.263 98.3424C170.675 97.9682 170.69 97.3259 170.296 96.9331L156.534 83.2028C156.191 82.861 155.649 82.8228 155.262 83.1132Z" fill="url(#paint5_linear_155:527)"/>
<path d="M159.226 107.858L158.322 103.405C158.141 102.513 156.945 102.335 156.512 103.135L155.089 105.764L151.282 111.563C150.973 112.035 151.127 112.67 151.619 112.946L152.359 113.361C152.924 113.679 153.635 113.366 153.783 112.735L154.561 109.414C154.676 108.925 155.144 108.604 155.641 108.672L158.139 109.016C158.803 109.107 159.359 108.515 159.226 107.858Z" fill="url(#paint6_linear_155:527)"/>
<path d="M156.969 97.4211L154.892 96.1718C154.49 95.9304 153.974 96.0091 153.663 96.3591L143.279 108.036C142.856 108.512 142.996 109.259 143.563 109.55L147.788 111.711C148.231 111.938 148.774 111.794 149.046 111.378L157.281 98.788C157.584 98.3261 157.442 97.7056 156.969 97.4211Z" fill="url(#paint7_linear_155:527)"/>
<path d="M152.522 95.1963L151.755 93.6613C151.553 93.2581 151.101 93.046 150.663 93.1486L147.48 93.8926C147.25 93.9464 147.048 94.0819 146.91 94.274L144.292 97.9333C144.064 98.2511 143.669 98.4021 143.288 98.3168L141.665 97.9537C141.181 97.8455 140.693 98.118 140.532 98.5867L139.345 102.035C139.262 102.274 139.09 102.472 138.863 102.587L134.044 105.02C133.331 105.38 133.331 106.398 134.045 106.758L138.103 108.804C138.468 108.988 138.909 108.924 139.208 108.644L152.317 96.3411C152.631 96.0467 152.714 95.5812 152.522 95.1963Z" fill="url(#paint8_linear_155:527)"/>
<path d="M142.878 116.448L131.078 110.698C130.638 110.483 130.107 110.629 129.838 111.037L116.649 131.075C116.601 131.148 116.543 131.214 116.477 131.272L90.5605 153.98C90.4851 154.046 90.4203 154.124 90.3685 154.21L83.8239 165.059C83.2842 165.954 84.3419 166.955 85.2055 166.366L92.9009 161.123C93.0531 161.019 93.1727 160.875 93.246 160.706L96.4254 153.369C96.4924 153.215 96.5983 153.08 96.7328 152.979L143.037 118.1C143.618 117.663 143.531 116.766 142.878 116.448Z" fill="url(#paint9_linear_155:527)"/>
<path d="M150.841 116.788L150.694 116.638C150.125 116.06 149.14 116.391 149.035 117.195L148.965 117.727C148.827 118.788 150.253 119.263 150.778 118.331L150.994 117.949C151.208 117.571 151.145 117.097 150.841 116.788Z" fill="url(#paint10_linear_155:527)"/>
<path d="M146.211 125.024L138.552 127.041C137.542 127.307 136.879 126.011 137.686 125.348L145.327 119.066C145.961 118.545 146.915 118.993 146.919 119.814L146.937 124.078C146.939 124.522 146.64 124.911 146.211 125.024Z" fill="url(#paint11_linear_155:527)"/>
<path d="M157.914 116.087L156.372 113.956C156.038 113.494 156.17 112.845 156.659 112.551L160.514 110.231C160.867 110.019 161.323 110.119 161.554 110.46C161.853 110.901 161.626 111.506 161.11 111.642L160.452 111.815C160.031 111.926 159.735 112.303 159.727 112.738L159.676 115.534C159.659 116.468 158.462 116.844 157.914 116.087Z" fill="url(#paint12_linear_155:527)"/>
<path d="M154.396 119.47L153.842 119.962C152.947 120.756 151.686 119.547 152.442 118.619L153.65 117.135C153.806 116.943 154.029 116.818 154.274 116.785L154.66 116.732C155.583 116.607 156.138 117.725 155.48 118.384L154.396 119.47Z" fill="url(#paint13_linear_155:527)"/>
<path d="M136.671 100.772L136.488 99.9096C136.449 99.7249 136.357 99.5556 136.223 99.4223L135.576 98.7766C134.915 98.1169 133.794 98.677 133.925 99.6019L134.13 101.055C134.193 101.504 134.558 101.849 135.009 101.889L135.633 101.943C136.285 102.001 136.806 101.412 136.671 100.772Z" fill="url(#paint14_linear_155:527)"/>
<path d="M140.491 94.9965L140.323 95.3883C140.052 96.0208 139.228 96.1799 138.741 95.6939L138.406 95.3595C137.829 94.7836 138.173 93.7957 138.983 93.7033L139.486 93.646C140.228 93.5614 140.785 94.3099 140.491 94.9965Z" fill="url(#paint15_linear_155:527)"/>
<path d="M143.094 91.7693L142.946 88.7236C142.913 88.0503 142.222 87.6134 141.6 87.8721L139.533 88.7311C139.284 88.8347 139.089 89.0371 138.994 89.29L138.282 91.2023C138.058 91.8026 138.465 92.4516 139.103 92.5114L142.031 92.7857C142.621 92.841 143.123 92.361 143.094 91.7693Z" fill="url(#paint16_linear_155:527)"/>
<path d="M131.632 101.761L132.514 104.194C132.71 104.737 132.394 105.331 131.834 105.47L127.647 106.515C126.69 106.754 126.026 105.581 126.723 104.883L129.564 102.035C129.609 101.99 129.65 101.94 129.685 101.887L129.906 101.554C130.349 100.889 131.36 101.01 131.632 101.761Z" fill="url(#paint17_linear_155:527)"/>
<path d="M130.292 131.724L137.557 129.239C138.621 128.875 139.352 130.306 138.433 130.955L129.442 137.301L102.208 158.202C102.165 158.235 102.119 158.265 102.071 158.29L98.5197 160.172C97.7246 160.593 96.8326 159.802 97.1555 158.963L98.7962 154.694C98.8638 154.518 98.981 154.366 99.1335 154.255L130.036 131.856C130.115 131.8 130.201 131.755 130.292 131.724Z" fill="url(#paint18_linear_155:527)"/>
<path d="M136.976 133.023L136.851 133.118C135.965 133.795 136.729 135.189 137.777 134.806L141.882 133.304C142.376 133.123 142.637 132.581 142.471 132.082L142.37 131.78C142.188 131.236 141.579 130.965 141.054 131.197L137.174 132.906C137.104 132.937 137.037 132.976 136.976 133.023Z" fill="url(#paint19_linear_155:527)"/>
<path d="M123.713 147.828L121.807 147.173C121.086 146.925 120.374 147.563 120.54 148.306L121.029 150.486C121.112 150.856 121.402 151.144 121.773 151.224L125.534 152.038C126.483 152.244 127.115 151.084 126.427 150.398L124.083 148.06C123.979 147.955 123.852 147.876 123.713 147.828Z" fill="url(#paint20_linear_155:527)"/>
<path d="M117.756 152.47L115.324 157.536L114.388 157.034C113.8 156.718 113.076 157.075 112.968 157.734L112.882 158.257C112.698 159.375 114.248 159.852 114.725 158.825L115.324 157.536L119.96 155.67C120.144 155.596 120.35 155.593 120.536 155.663C121.329 155.96 121.976 154.978 121.391 154.366L119.336 152.218C118.866 151.727 118.05 151.857 117.756 152.47Z" fill="url(#paint21_linear_155:527)"/>
<path d="M118.908 149.843L118.627 149.28C118.301 148.626 117.398 148.552 116.969 149.143L116.173 150.238C115.576 151.061 116.481 152.133 117.393 151.682L118.469 151.15C118.952 150.911 119.149 150.325 118.908 149.843Z" fill="url(#paint22_linear_155:527)"/>
<path d="M126.134 143.956L125.846 144.807C125.719 145.181 125.38 145.441 124.986 145.467L124.137 145.521C123.186 145.583 122.723 144.382 123.468 143.789L124.606 142.883C125.365 142.278 126.445 143.036 126.134 143.956Z" fill="url(#paint23_linear_155:527)"/>
<path d="M110.143 160.133L110.533 156.341C110.622 155.476 109.618 154.937 108.946 155.49L105.327 158.471C105.179 158.593 105.07 158.756 105.014 158.94L104.188 161.662C103.943 162.469 104.771 163.185 105.534 162.825L109.589 160.914C109.898 160.768 110.108 160.472 110.143 160.133Z" fill="url(#paint24_linear_155:527)"/>
<path d="M132.471 140.469L132.924 141.993C133.135 142.7 132.513 143.375 131.791 143.223L131.171 143.093C130.986 143.054 130.817 142.962 130.684 142.829L130.021 142.168C129.623 141.771 129.643 141.12 130.065 140.749L130.894 140.017C131.428 139.547 132.268 139.788 132.471 140.469Z" fill="url(#paint25_linear_155:527)"/>
<path d="M124.639 114.703L126.937 110.853C127.355 110.152 126.776 109.278 125.967 109.39L123.068 109.791C123.018 109.798 122.968 109.809 122.92 109.824L121.574 110.231C120.956 110.418 120.688 111.144 121.036 111.688L122.983 114.729C123.373 115.338 124.268 115.324 124.639 114.703Z" fill="url(#paint26_linear_155:527)"/>
<path d="M120.312 121.638L117.291 126.483C116.847 127.196 115.769 127.049 115.531 126.243L115.018 124.499C114.95 124.268 114.97 124.02 115.074 123.804L117.106 119.556C117.373 118.999 118.084 118.827 118.575 119.202L120.077 120.35C120.476 120.654 120.578 121.212 120.312 121.638Z" fill="url(#paint27_linear_155:527)"/>
<path d="M106.659 137.96L112.732 132.687C113.492 132.028 112.873 130.789 111.889 131.001L104.145 132.668C103.535 132.799 103.204 133.463 103.467 134.029L105.138 137.635C105.411 138.223 106.17 138.385 106.659 137.96Z" fill="url(#paint28_linear_155:527)"/>
<path d="M107.993 125.253L107.964 130.348C107.96 131.083 107.175 131.548 106.529 131.2L103.525 129.58C103.021 129.309 102.859 128.664 103.175 128.186L105.095 125.283C105.187 125.144 105.314 125.031 105.462 124.955L106.575 124.382C107.225 124.047 107.998 124.522 107.993 125.253Z" fill="url(#paint29_linear_155:527)"/>
<path d="M101.949 140.093L101.896 138.271C101.88 137.703 101.383 137.27 100.818 137.331L96.1672 137.838C95.8373 137.874 95.5484 138.075 95.4008 138.372L91.2591 146.715C90.8634 147.512 91.6567 148.378 92.4855 148.054L95.4935 146.877C95.619 146.828 95.7329 146.754 95.828 146.658L101.665 140.808C101.854 140.619 101.956 140.36 101.949 140.093Z" fill="url(#paint30_linear_155:527)"/>
<path d="M97.3368 133.379L96.3699 133.781C95.4449 134.164 94.613 133.069 95.2309 132.281L97.5585 129.312C98.1074 128.612 99.2305 128.954 99.2953 129.842L99.5213 132.938C99.574 133.66 98.7015 134.06 98.1889 133.548C97.965 133.325 97.6288 133.258 97.3368 133.379Z" fill="url(#paint31_linear_155:527)"/>
<path d="M80.5929 157.21L82.3459 158.959C82.6926 159.305 83.2422 159.339 83.6294 159.04L87.0297 156.406C87.2167 156.261 87.3445 156.053 87.3894 155.821L87.7813 153.792C87.9361 152.991 87.0953 152.366 86.3729 152.746L80.8276 155.659C80.2464 155.965 80.1281 156.746 80.5929 157.21Z" fill="url(#paint32_linear_155:527)"/>
<path d="M87.8798 146.852L86.3097 148.425C85.6298 149.107 84.479 148.493 84.6658 147.549L85.0875 145.417C85.2113 144.79 85.8943 144.451 86.4683 144.73L87.6166 145.289C88.2175 145.581 88.3518 146.379 87.8798 146.852Z" fill="url(#paint33_linear_155:527)"/>
<path d="M70.8353 164.236L65.8645 162.654C65.3655 162.496 65.0816 161.97 65.222 161.466L65.4608 160.608C65.6573 159.902 64.9129 159.305 64.2664 159.649C64.0905 159.743 63.954 159.896 63.8817 160.082L62.7574 162.971C62.6011 163.373 62.7275 163.829 63.068 164.093L68.6556 168.426C69.4256 169.023 70.498 168.244 70.1678 167.327L70.1394 167.248C69.953 166.731 70.2522 166.166 70.7847 166.029C71.6918 165.796 71.7278 164.52 70.8353 164.236Z" fill="url(#paint34_linear_155:527)"/>
<path d="M78.5856 155.384L77.4836 156.718C76.8268 157.512 75.5471 156.874 75.7866 155.871L76.0535 154.754C76.1372 154.404 76.4075 154.128 76.7562 154.038L77.5914 153.822C78.5049 153.585 79.1868 154.657 78.5856 155.384Z" fill="url(#paint35_linear_155:527)"/>
<path d="M75.7341 178.419L86.513 169.319C86.926 168.971 87.5439 169.025 87.8894 169.441L90.2381 172.266C90.5667 172.661 90.5314 173.243 90.1575 173.596L72.7495 190.015C71.9836 190.737 70.7755 189.899 71.1848 188.929L75.4653 178.785C75.5248 178.644 75.617 178.518 75.7341 178.419Z" fill="url(#paint36_linear_155:527)"/>
<path d="M99.1482 163.658L99.2589 163.622C99.6068 163.509 99.9889 163.6 100.248 163.859L100.3 163.911C100.948 164.557 100.427 165.66 99.5163 165.569L99.3531 165.552C98.3051 165.448 98.1468 163.985 99.1482 163.658Z" fill="url(#paint37_linear_155:527)"/>
<path d="M93.8328 167.103L97.3613 167.267C97.9531 167.294 98.3834 167.839 98.2724 168.421L96.6652 176.846C96.5947 177.216 96.3173 177.512 95.9529 177.606L90.6457 178.979C89.5876 179.253 88.9511 177.844 89.8562 177.231L92.5375 175.416C92.8116 175.23 92.9727 174.918 92.965 174.587L92.8147 168.098C92.8016 167.534 93.2692 167.077 93.8328 167.103Z" fill="url(#paint38_linear_155:527)"/>
<path d="M105.796 169.727L107.267 166.924C107.754 165.996 109.162 166.387 109.1 167.434L109.015 168.871C109.004 169.059 109.125 169.228 109.305 169.279C109.712 169.395 109.684 169.981 109.267 170.057L107.533 170.372C107.36 170.403 107.202 170.491 107.085 170.622C106.464 171.316 105.364 170.552 105.796 169.727Z" fill="url(#paint39_linear_155:527)"/>
<path d="M68.4386 189.655L72.3926 175.633C72.6374 174.765 71.6717 174.059 70.9192 174.557L65.1925 178.34C64.8698 178.554 64.704 178.938 64.77 179.319L66.5427 189.557C66.7195 190.578 68.1574 190.652 68.4386 189.655Z" fill="url(#paint40_linear_155:527)"/>
<path d="M81.7034 163.322L78.793 167.122C78.1595 167.949 76.845 167.337 77.0698 166.32L77.3622 164.998C77.3965 164.842 77.4685 164.698 77.5718 164.576L79.5777 162.223C79.719 162.057 79.9118 161.944 80.1252 161.901L80.7374 161.777C81.619 161.598 82.2503 162.608 81.7034 163.322Z" fill="url(#paint41_linear_155:527)"/>
<path d="M50.99 189.28L52.0406 190.199C52.4755 190.58 52.4851 191.253 52.0612 191.646L50.5933 193.006C49.9068 193.642 48.8059 193.037 48.9744 192.116L49.3916 189.837C49.5277 189.094 50.4214 188.783 50.99 189.28Z" fill="url(#paint42_linear_155:527)"/>
<path d="M78.6725 189.951L78.9122 191.631C78.9607 191.971 78.8264 192.312 78.5587 192.527L75.9943 194.59C75.1409 195.276 73.9795 194.248 74.5574 193.318L76.8821 189.575C77.3616 188.802 78.5441 189.051 78.6725 189.951Z" fill="url(#paint43_linear_155:527)"/>
<path d="M63.2757 178.065L66.7494 175.266C67.2333 174.876 67.2328 174.138 66.7483 173.749L63.2905 170.971C62.6545 170.46 61.7099 170.911 61.7076 171.727L61.6916 177.304C61.6893 178.123 62.6379 178.579 63.2757 178.065Z" fill="url(#paint44_linear_155:527)"/>
<path d="M89.6932 186.1L91.7733 185.459C92.5446 185.221 93.2535 185.972 92.9725 186.728L91.9756 189.412C91.683 190.2 90.5968 190.272 90.2032 189.529L89.1199 187.486C88.8338 186.947 89.1096 186.28 89.6932 186.1Z" fill="url(#paint45_linear_155:527)"/>
<path d="M55.3712 173.579L54.6478 175.438C54.4844 175.858 54.0543 176.111 53.6081 176.049L52.2804 175.867C51.4382 175.751 51.1388 174.687 51.7971 174.149L53.8481 172.473C54.6229 171.839 55.734 172.647 55.3712 173.579Z" fill="url(#paint46_linear_155:527)"/>
<path d="M54.9932 184.096L50.2798 183.448C49.2427 183.305 49.131 181.85 50.1342 181.551L54.9302 180.12C55.57 179.93 56.2075 180.425 56.181 181.092L56.0983 183.17C56.0755 183.745 55.5626 184.174 54.9932 184.096Z" fill="url(#paint47_linear_155:527)"/>
<path d="M49.4809 213.818L49.5066 213.752C49.8339 212.911 51.0305 212.93 51.3313 213.78L51.3731 213.898C51.6963 214.813 50.6297 215.586 49.8614 214.994L49.794 214.942C49.4517 214.678 49.3241 214.221 49.4809 213.818Z" fill="url(#paint48_linear_155:527)"/>
<path d="M56.4382 205.457L56.6727 206.731C56.845 207.667 55.7099 208.269 55.0321 207.6L54.1403 206.721C53.6874 206.275 53.7774 205.521 54.3228 205.194L54.98 204.799C55.5626 204.449 56.3152 204.789 56.4382 205.457Z" fill="url(#paint49_linear_155:527)"/>
<path d="M106.174 88.8901L103.591 89.8932C102.655 90.2568 102.816 91.628 103.811 91.7648L105.892 92.0509C106.338 92.1123 106.768 91.8594 106.932 91.4396L107.433 90.1504C107.74 89.3613 106.963 88.5835 106.174 88.8901Z" fill="url(#paint50_linear_155:527)"/>
<path d="M114.887 94.8738L109.735 96.8555C108.855 97.1941 108.923 98.4614 109.834 98.7044L115.054 100.097C115.68 100.264 116.292 99.784 116.278 99.1364L116.209 95.7624C116.196 95.0879 115.517 94.6316 114.887 94.8738Z" fill="url(#paint51_linear_155:527)"/>
<path d="M104.591 114.774L104.765 114.649C105.385 114.204 106.254 114.615 106.303 115.377L106.328 115.759C106.391 116.716 105.177 117.177 104.588 116.419L104.389 116.162C104.05 115.726 104.142 115.096 104.591 114.774Z" fill="url(#paint52_linear_155:527)"/>
<path d="M82.9799 133.165L85.0944 134.382C85.68 134.719 85.7522 135.536 85.2348 135.971L81.3888 139.203C80.6173 139.851 79.4901 139.044 79.8555 138.105L81.5871 133.655C81.8033 133.1 82.4634 132.867 82.9799 133.165Z" fill="url(#paint53_linear_155:527)"/>
<path d="M64.155 153.395L61.4567 152.316C61.0931 152.171 60.6777 152.258 60.4026 152.536L58.1879 154.78C57.5011 155.476 58.1539 156.637 59.1052 156.411L64.0183 155.246C64.9431 155.026 65.0375 153.748 64.155 153.395Z" fill="url(#paint54_linear_155:527)"/>
<path d="M66.8616 128.405L73.4135 127.661C74.1771 127.574 74.7353 128.365 74.3979 129.056L72.057 133.846C71.7673 134.439 70.984 134.577 70.5082 134.12L66.2971 130.074C65.7028 129.503 66.0427 128.498 66.8616 128.405Z" fill="url(#paint55_linear_155:527)"/>
<path d="M139.395 165.121L140.513 160.826C140.736 159.97 139.794 159.285 139.048 159.76L136.011 161.697C135.52 162.01 135.412 162.681 135.779 163.132L137.698 165.49C138.202 166.108 139.194 165.892 139.395 165.121Z" fill="url(#paint56_linear_155:527)"/>
<path d="M126.007 163.696L126.781 165.184C126.925 165.46 126.928 165.788 126.79 166.066L124.666 170.339C124.151 171.374 122.583 170.809 122.846 169.684L124.196 163.923C124.402 163.044 125.59 162.895 126.007 163.696Z" fill="url(#paint57_linear_155:527)"/>
<path d="M116.46 182.594L114.802 179.861C114.466 179.308 113.693 179.23 113.254 179.707L111.203 181.931C110.67 182.509 111.008 183.448 111.787 183.555L115.496 184.063C116.308 184.175 116.885 183.294 116.46 182.594Z" fill="url(#paint58_linear_155:527)"/>
<path d="M101.822 187.127L101.689 188.22C101.623 188.759 101.128 189.14 100.59 189.066L99.4412 188.908C98.5734 188.789 98.2925 187.674 99.0002 187.158L100.282 186.223C100.97 185.721 101.924 186.282 101.822 187.127Z" fill="url(#paint59_linear_155:527)"/>
<path d="M106.122 215.275L103.184 213.278C102.654 212.918 101.926 213.16 101.717 213.766L100.912 216.106C100.682 216.774 101.218 217.456 101.921 217.392L105.664 217.049C106.574 216.966 106.878 215.788 106.122 215.275Z" fill="url(#paint60_linear_155:527)"/>
<path d="M115.21 200.639L110.58 201.012C109.529 201.097 109.344 202.557 110.339 202.902L114.703 204.413C115.282 204.614 115.9 204.236 115.985 203.63L116.252 201.746C116.339 201.129 115.831 200.589 115.21 200.639Z" fill="url(#paint61_linear_155:527)"/>
<path d="M62.109 191.607L59.3672 189.004C58.8655 188.528 58.0408 188.712 57.7899 189.357L56.5678 192.497C56.469 192.751 56.4811 193.035 56.6013 193.28L57.7679 195.654C58.0657 196.26 58.8754 196.386 59.3433 195.899L62.1406 192.987C62.5146 192.598 62.5004 191.979 62.109 191.607Z" fill="url(#paint62_linear_155:527)"/>
<path d="M59.0662 198.685L58.4346 198.786C57.6872 198.906 57.3567 199.796 57.8447 200.375L58.0242 200.588C58.3481 200.972 58.9111 201.046 59.3238 200.759L59.7759 200.445C60.626 199.854 60.0884 198.521 59.0662 198.685Z" fill="url(#paint63_linear_155:527)"/>
<path d="M42.4172 204.099L44.7034 203.881C45.5485 203.8 46.0847 204.765 45.5702 205.44L43.7328 207.851C43.2263 208.516 42.1726 208.275 42.005 207.456L41.5562 205.264C41.4401 204.697 41.8412 204.154 42.4172 204.099Z" fill="url(#paint64_linear_155:527)"/>
<path d="M49.9947 167.442L45.9735 166.634C45.0743 166.454 44.4471 167.503 45.0323 168.21L47.294 170.939C47.6708 171.394 48.3626 171.411 48.7614 170.976L50.5209 169.054C51.0326 168.495 50.7376 167.591 49.9947 167.442Z" fill="url(#paint65_linear_155:527)"/>
<path d="M36.3405 210.353L36.3607 209.757C36.3922 208.83 35.2318 208.388 34.6391 209.102L33.6713 210.268C32.9712 211.111 33.9822 212.288 34.9215 211.724L35.8691 211.154C36.1518 210.984 36.3293 210.683 36.3405 210.353Z" fill="url(#paint66_linear_155:527)"/>
<path d="M165.186 123.211L168.418 126.286C169 126.84 168.698 127.821 167.906 127.952L162.163 128.901C161.337 129.038 160.735 128.136 161.178 127.426L163.689 123.401C164.015 122.879 164.739 122.787 165.186 123.211Z" fill="url(#paint67_linear_155:527)"/>
<path d="M159.768 147.188L155.772 146.638C155.289 146.572 154.832 146.873 154.702 147.342L153.446 151.867C153.197 152.764 154.229 153.465 154.971 152.903L160.223 148.928C160.915 148.404 160.628 147.306 159.768 147.188Z" fill="url(#paint68_linear_155:527)"/>
<path d="M51.1582 202.003C50.6553 202.229 50.0907 201.845 50.1172 201.294C50.1391 200.84 50.561 200.514 51.0054 200.606C51.706 200.752 51.8107 201.709 51.1582 202.003Z" fill="url(#paint69_linear_155:527)"/>
<path d="M88.5003 201.764C88.2013 201.55 88.0655 201.173 88.1594 200.817C88.3503 200.094 89.2971 199.919 89.7343 200.526C90.3197 201.34 89.3155 202.347 88.5003 201.764Z" fill="url(#paint70_linear_155:527)"/>
<path d="M40.9731 197.884C40.1748 198.005 39.7659 196.96 40.4343 196.507C41.0498 196.09 41.8351 196.716 41.5655 197.409C41.4672 197.662 41.2412 197.843 40.9731 197.884Z" fill="url(#paint71_linear_155:527)"/>
<path d="M102.843 168.726C102.37 169.708 100.885 169.252 101.045 168.173C101.087 167.89 101.254 167.641 101.501 167.495C102.311 167.014 103.252 167.877 102.843 168.726Z" fill="url(#paint72_linear_155:527)"/>
<path d="M143.734 95.5657C142.897 95.6455 142.42 94.6342 143.014 94.0393C143.675 93.3765 144.782 94.0427 144.506 94.9373C144.399 95.2834 144.095 95.5314 143.734 95.5657Z" fill="url(#paint73_linear_155:527)"/>
<g filter="url(#filter0_b_155:527)">
<path d="M5.56015 109.891C4.6489 109.891 3.9925 110.138 3.59093 110.632C3.18937 111.127 2.87275 111.86 2.64107 112.833C2.2704 112.833 1.89972 112.818 1.52904 112.787C1.17381 112.741 0.85719 112.648 0.579182 112.509C0.733631 111.876 0.85719 111.165 0.949859 110.378C1.05797 109.59 1.11203 108.887 1.11203 108.269C1.69894 108.285 2.30901 108.3 2.94225 108.316C3.57549 108.331 4.29367 108.339 5.09681 108.339C5.91538 108.339 6.88841 108.339 8.01589 108.339C9.54493 108.339 10.8423 108.339 11.908 108.339C12.9737 108.323 13.9467 108.3 14.8271 108.269C14.8271 108.887 14.8657 109.574 14.9429 110.331C15.0201 111.073 15.136 111.791 15.2904 112.486C14.7498 112.718 14.0471 112.833 13.1822 112.833C13.0277 111.814 12.7575 111.073 12.3713 110.609C11.9852 110.131 11.3829 109.891 10.5643 109.891H9.9156V120.015C9.9156 120.679 9.96966 121.181 10.0778 121.521C10.1859 121.861 10.3944 122.1 10.7033 122.239C11.0122 122.363 11.4678 122.44 12.0702 122.471C12.1319 122.656 12.1783 122.903 12.2092 123.212C12.2401 123.506 12.2555 123.791 12.2555 124.07C11.823 124.039 11.2361 124.015 10.4948 124C9.76888 124 8.98119 124 8.13172 124C7.56026 124 6.96563 124 6.34784 124C5.74549 124.015 5.17403 124.023 4.63346 124.023C4.10833 124.039 3.6836 124.054 3.35926 124.07C3.35926 123.807 3.38243 123.529 3.42876 123.235C3.4751 122.927 3.53687 122.672 3.6141 122.471C4.21645 122.44 4.67979 122.363 5.00414 122.239C5.34392 122.1 5.5756 121.861 5.69916 121.521C5.83816 121.181 5.90766 120.679 5.90766 120.015V109.891H5.56015ZM19.1177 124.07C19.1177 123.807 19.1332 123.529 19.1641 123.235C19.2104 122.927 19.2567 122.672 19.3031 122.471C19.7201 122.44 20.0367 122.363 20.2529 122.239C20.4692 122.1 20.6159 121.861 20.6931 121.521C20.7858 121.181 20.8321 120.679 20.8321 120.015V112.277C20.8321 111.629 20.7935 111.142 20.7163 110.818C20.639 110.493 20.4846 110.27 20.2529 110.146C20.0367 110.007 19.7201 109.914 19.3031 109.868C19.1795 109.405 19.1177 108.872 19.1177 108.269C19.3803 108.285 19.7355 108.3 20.1834 108.316C20.6468 108.316 21.1256 108.323 21.6198 108.339C22.114 108.339 22.5465 108.339 22.9172 108.339C23.4577 108.339 24.0833 108.331 24.7937 108.316C25.5042 108.3 26.0911 108.285 26.5544 108.269C26.5544 108.563 26.539 108.841 26.5081 109.103C26.4927 109.351 26.4463 109.605 26.3691 109.868C25.9366 109.914 25.6123 109.999 25.3961 110.123C25.1798 110.246 25.0331 110.478 24.9559 110.818C24.8787 111.142 24.8401 111.629 24.8401 112.277V115.104H29.9832V112.277C29.9832 111.629 29.9446 111.142 29.8674 110.818C29.7901 110.493 29.6434 110.27 29.4272 110.146C29.2109 110.007 28.8866 109.914 28.4542 109.868C28.3306 109.405 28.2688 108.872 28.2688 108.269C28.5314 108.285 28.8943 108.3 29.3577 108.316C29.821 108.316 30.2998 108.323 30.794 108.339C31.2883 108.339 31.713 108.339 32.0682 108.339C32.6088 108.339 33.2343 108.331 33.9448 108.316C34.6553 108.3 35.2422 108.285 35.7055 108.269C35.7055 108.563 35.6978 108.841 35.6823 109.103C35.6669 109.351 35.6128 109.605 35.5202 109.868C35.1032 109.914 34.7788 109.999 34.5471 110.123C34.3309 110.246 34.1842 110.478 34.107 110.818C34.0297 111.142 33.9911 111.629 33.9911 112.277V120.015C33.9911 120.679 34.0297 121.181 34.107 121.521C34.1996 121.861 34.3541 122.1 34.5703 122.239C34.802 122.363 35.1263 122.44 35.5433 122.471C35.5897 122.656 35.6283 122.903 35.6592 123.212C35.6901 123.506 35.7055 123.791 35.7055 124.07C35.3194 124.039 34.8252 124.015 34.2228 124C33.6205 124 32.9641 124 32.2536 124C31.5431 124 30.8249 124 30.099 124C29.3886 124.015 28.7785 124.039 28.2688 124.07C28.2688 123.807 28.2843 123.529 28.3151 123.235C28.3615 122.927 28.4155 122.672 28.4773 122.471C28.8943 122.44 29.2109 122.363 29.4272 122.239C29.6434 122.1 29.7901 121.861 29.8674 121.521C29.9446 121.181 29.9832 120.679 29.9832 120.015V116.725C29.4581 116.725 28.8866 116.733 28.2688 116.749C27.651 116.749 27.0332 116.764 26.4154 116.795C25.8131 116.826 25.288 116.872 24.8401 116.934V120.015C24.8401 120.679 24.8787 121.181 24.9559 121.521C25.0486 121.861 25.203 122.1 25.4192 122.239C25.6355 122.363 25.9521 122.44 26.3691 122.471C26.4309 122.656 26.4772 122.903 26.5081 123.212C26.539 123.506 26.5544 123.791 26.5544 124.07C26.1683 124.039 25.6664 124.015 25.0486 124C24.4462 124 23.7898 124 23.0793 124C22.3689 124 21.6507 124 20.9248 124C20.2143 124.015 19.612 124.039 19.1177 124.07ZM51.7387 119.343C52.1712 119.405 52.565 119.498 52.9203 119.621C53.2909 119.745 53.569 119.899 53.7543 120.085C53.5844 120.61 53.4377 121.228 53.3141 121.938C53.1906 122.649 53.0979 123.351 53.0361 124.046C52.6191 124.031 52.0862 124.023 51.4376 124.023C50.7889 124.023 50.0939 124.015 49.3525 124C48.6266 124 47.9316 124 47.2674 124C46.8504 124 46.3099 124 45.6457 124C44.9971 124.015 44.3175 124.023 43.607 124.023C42.912 124.023 42.271 124.031 41.6841 124.046C41.0972 124.062 40.6725 124.07 40.4099 124.07C40.4099 123.761 40.4176 123.467 40.4331 123.189C40.464 122.911 40.5103 122.672 40.5721 122.471C40.9891 122.44 41.3057 122.363 41.522 122.239C41.7536 122.1 41.9081 121.861 41.9853 121.521C42.078 121.166 42.1243 120.648 42.1243 119.969V112.277C42.1243 111.629 42.078 111.142 41.9853 110.818C41.9081 110.493 41.7536 110.27 41.522 110.146C41.3057 110.007 40.9814 109.914 40.5489 109.868C40.5026 109.667 40.464 109.412 40.4331 109.103C40.4176 108.779 40.4099 108.501 40.4099 108.269C40.7343 108.285 41.1436 108.3 41.6378 108.316C42.132 108.316 42.6494 108.323 43.19 108.339C43.7306 108.339 44.2557 108.339 44.7654 108.339C45.2751 108.339 45.7075 108.339 46.0627 108.339C47.7926 108.339 49.1286 108.331 50.0707 108.316C51.0283 108.3 51.8005 108.285 52.3874 108.269C52.4029 108.656 52.426 109.096 52.4569 109.59C52.5033 110.069 52.5573 110.548 52.6191 111.026C52.6963 111.505 52.7813 111.922 52.8739 112.277C52.6268 112.385 52.3411 112.478 52.0167 112.555C51.7078 112.617 51.3217 112.648 50.8584 112.648C50.7812 112.123 50.6344 111.652 50.4182 111.235C50.2174 110.802 49.8854 110.47 49.422 110.239C48.9741 109.992 48.3409 109.868 47.5223 109.868H46.1322V115.405H46.5029C47.3061 115.405 47.8466 115.281 48.1246 115.034C48.4026 114.787 48.5494 114.347 48.5648 113.714C48.8119 113.621 49.0977 113.559 49.422 113.528C49.7463 113.482 50.063 113.459 50.3719 113.459C50.341 113.83 50.3178 114.231 50.3024 114.664C50.2869 115.096 50.2792 115.583 50.2792 116.123C50.2792 116.71 50.2869 117.227 50.3024 117.675C50.3178 118.108 50.341 118.502 50.3719 118.857C50.0012 118.857 49.6768 118.841 49.3988 118.811C49.1208 118.78 48.8583 118.726 48.6111 118.648C48.5494 117.969 48.3718 117.521 48.0783 117.305C47.7848 117.073 47.2597 116.957 46.5029 116.957H46.1322V119.876C46.1322 120.88 46.2558 121.56 46.5029 121.915C46.7655 122.27 47.2674 122.448 48.0088 122.448H48.3331C49.3371 122.448 50.0784 122.201 50.5572 121.706C51.036 121.212 51.4298 120.425 51.7387 119.343ZM71.2447 124.209C70.2253 124.209 69.2678 124.093 68.3719 123.861C67.4916 123.629 66.6344 123.29 65.8004 122.842C65.9239 122.224 66.0012 121.591 66.0321 120.942C66.0784 120.293 66.1016 119.675 66.1016 119.089C66.4877 118.98 66.8892 118.911 67.3063 118.88C67.7387 118.849 68.148 118.834 68.5341 118.834C68.5959 119.76 68.7117 120.494 68.8816 121.035C69.067 121.56 69.345 121.938 69.7157 122.17C70.1018 122.401 70.6115 122.517 71.2447 122.517C72.1096 122.517 72.7274 122.34 73.0981 121.984C73.4688 121.614 73.6541 121.197 73.6541 120.733C73.6541 120.255 73.4688 119.861 73.0981 119.552C72.7428 119.228 72.2795 118.934 71.708 118.672C71.1366 118.394 70.5265 118.108 69.8778 117.814C69.2446 117.505 68.6422 117.142 68.0708 116.725C67.4993 116.293 67.0282 115.76 66.6576 115.127C66.3023 114.494 66.1247 113.706 66.1247 112.764C66.1247 111.683 66.3641 110.802 66.8429 110.123C67.3371 109.428 67.9935 108.926 68.8121 108.617C69.6307 108.293 70.5342 108.13 71.5227 108.13C72.0942 108.13 72.6733 108.177 73.2602 108.269C73.8472 108.362 74.3877 108.486 74.882 108.64C75.3916 108.795 75.7932 108.964 76.0867 109.15C76.0867 109.768 76.0944 110.393 76.1098 111.026C76.1253 111.66 76.1639 112.162 76.2257 112.532C75.9477 112.702 75.577 112.826 75.1136 112.903C74.6657 112.965 74.2642 112.996 73.9089 112.996C73.7082 111.729 73.3838 110.88 72.9359 110.447C72.5035 109.999 71.9552 109.775 71.291 109.775C70.7196 109.775 70.2408 109.907 69.8547 110.169C69.484 110.432 69.2986 110.826 69.2986 111.351C69.2986 111.876 69.4917 112.316 69.8778 112.671C70.2639 113.026 70.7582 113.351 71.3605 113.644C71.9629 113.922 72.6038 114.216 73.2834 114.525C73.963 114.833 74.604 115.196 75.2063 115.613C75.8087 116.03 76.3029 116.556 76.689 117.189C77.0751 117.807 77.2682 118.579 77.2682 119.506C77.2682 120.911 76.7585 122.046 75.7391 122.911C74.7198 123.776 73.2216 124.209 71.2447 124.209ZM81.7753 124.07C81.7753 123.807 81.7908 123.529 81.8217 123.235C81.868 122.927 81.9143 122.672 81.9607 122.471C82.3777 122.44 82.6943 122.363 82.9105 122.239C83.1267 122.1 83.2735 121.861 83.3507 121.521C83.4434 121.181 83.4897 120.679 83.4897 120.015V112.277C83.4897 111.629 83.4511 111.142 83.3739 110.818C83.2966 110.493 83.1422 110.27 82.9105 110.146C82.6943 110.007 82.3777 109.914 81.9607 109.868C81.8371 109.405 81.7753 108.872 81.7753 108.269C82.0379 108.285 82.3931 108.3 82.841 108.316C83.3044 108.316 83.7832 108.323 84.2774 108.339C84.7716 108.339 85.2041 108.339 85.5748 108.339C86.1153 108.339 86.7408 108.331 87.4513 108.316C88.1618 108.3 88.7487 108.285 89.212 108.269C89.212 108.563 89.1966 108.841 89.1657 109.103C89.1502 109.351 89.1039 109.605 89.0267 109.868C88.5942 109.914 88.2699 109.999 88.0537 110.123C87.8374 110.246 87.6907 110.478 87.6135 110.818C87.5363 111.142 87.4976 111.629 87.4976 112.277V115.104H92.6408V112.277C92.6408 111.629 92.6022 111.142 92.5249 110.818C92.4477 110.493 92.301 110.27 92.0848 110.146C91.8685 110.007 91.5442 109.914 91.1117 109.868C90.9882 109.405 90.9264 108.872 90.9264 108.269C91.189 108.285 91.5519 108.3 92.0153 108.316C92.4786 108.316 92.9574 108.323 93.4516 108.339C93.9459 108.339 94.3706 108.339 94.7258 108.339C95.2664 108.339 95.8919 108.331 96.6024 108.316C97.3129 108.3 97.8998 108.285 98.3631 108.269C98.3631 108.563 98.3554 108.841 98.3399 109.103C98.3245 109.351 98.2704 109.605 98.1778 109.868C97.7608 109.914 97.4364 109.999 97.2047 110.123C96.9885 110.246 96.8418 110.478 96.7646 110.818C96.6873 111.142 96.6487 111.629 96.6487 112.277V120.015C96.6487 120.679 96.6873 121.181 96.7646 121.521C96.8572 121.861 97.0117 122.1 97.2279 122.239C97.4596 122.363 97.7839 122.44 98.2009 122.471C98.2473 122.656 98.2859 122.903 98.3168 123.212C98.3477 123.506 98.3631 123.791 98.3631 124.07C97.977 124.039 97.4827 124.015 96.8804 124C96.278 124 95.6216 124 94.9112 124C94.2007 124 93.4825 124 92.7566 124C92.0462 124.015 91.4361 124.039 90.9264 124.07C90.9264 123.807 90.9418 123.529 90.9727 123.235C91.0191 122.927 91.0731 122.672 91.1349 122.471C91.5519 122.44 91.8685 122.363 92.0848 122.239C92.301 122.1 92.4477 121.861 92.5249 121.521C92.6022 121.181 92.6408 120.679 92.6408 120.015V116.725C92.1157 116.725 91.5442 116.733 90.9264 116.749C90.3086 116.749 89.6908 116.764 89.073 116.795C88.4707 116.826 87.9455 116.872 87.4976 116.934V120.015C87.4976 120.679 87.5363 121.181 87.6135 121.521C87.7061 121.861 87.8606 122.1 88.0768 122.239C88.2931 122.363 88.6097 122.44 89.0267 122.471C89.0885 122.656 89.1348 122.903 89.1657 123.212C89.1966 123.506 89.212 123.791 89.212 124.07C88.8259 124.039 88.3239 124.015 87.7061 124C87.1038 124 86.4474 124 85.7369 124C85.0265 124 84.3083 124 83.5824 124C82.8719 124.015 82.2696 124.039 81.7753 124.07ZM111.014 108.2L116.25 119.83C116.589 120.571 116.86 121.127 117.061 121.498C117.277 121.853 117.47 122.1 117.64 122.239C117.825 122.363 118.026 122.44 118.242 122.471C118.366 122.857 118.427 123.39 118.427 124.07C118.149 124.054 117.794 124.039 117.362 124.023C116.929 124.008 116.497 124 116.064 124C115.632 124 115.292 124 115.045 124C114.798 124 114.427 124 113.933 124C113.439 124 112.945 124.008 112.45 124.023C111.971 124.039 111.601 124.054 111.338 124.07C111.338 123.699 111.354 123.39 111.385 123.143C111.415 122.896 111.462 122.672 111.524 122.471C112.064 122.363 112.381 122.185 112.473 121.938C112.582 121.676 112.512 121.259 112.265 120.687L111.894 119.83C110.998 119.83 110.087 119.845 109.161 119.876C108.234 119.907 107.315 119.953 106.404 120.015L106.218 120.502C106.017 120.996 105.979 121.428 106.102 121.799C106.226 122.17 106.55 122.394 107.075 122.471C107.199 122.919 107.261 123.452 107.261 124.07C107.075 124.054 106.828 124.039 106.519 124.023C106.211 124.023 105.886 124.015 105.546 124C105.222 124 104.936 124 104.689 124C104.303 124 103.902 124.008 103.485 124.023C103.083 124.039 102.766 124.054 102.535 124.07C102.535 123.776 102.55 123.498 102.581 123.235C102.612 122.973 102.666 122.718 102.743 122.471C103.006 122.425 103.222 122.332 103.392 122.193C103.577 122.039 103.763 121.799 103.948 121.475C104.133 121.15 104.349 120.687 104.597 120.085L109.485 108.316C109.747 108.269 109.987 108.239 110.203 108.223C110.435 108.208 110.705 108.2 111.014 108.2ZM107.979 115.915L107.006 118.44H111.292L110.18 115.938C109.933 115.366 109.717 114.833 109.531 114.339C109.346 113.83 109.191 113.335 109.068 112.857C108.913 113.351 108.743 113.853 108.558 114.362C108.388 114.857 108.195 115.374 107.979 115.915ZM125.692 109.891C124.78 109.891 124.124 110.138 123.722 110.632C123.321 111.127 123.004 111.86 122.773 112.833C122.402 112.833 122.031 112.818 121.661 112.787C121.305 112.741 120.989 112.648 120.711 112.509C120.865 111.876 120.989 111.165 121.081 110.378C121.189 109.59 121.244 108.887 121.244 108.269C121.83 108.285 122.441 108.3 123.074 108.316C123.707 108.331 124.425 108.339 125.228 108.339C126.047 108.339 127.02 108.339 128.147 108.339C129.676 108.339 130.974 108.339 132.039 108.339C133.105 108.323 134.078 108.3 134.959 108.269C134.959 108.887 134.997 109.574 135.074 110.331C135.152 111.073 135.267 111.791 135.422 112.486C134.881 112.718 134.179 112.833 133.314 112.833C133.159 111.814 132.889 111.073 132.503 110.609C132.117 110.131 131.514 109.891 130.696 109.891H130.047V120.015C130.047 120.679 130.101 121.181 130.209 121.521C130.317 121.861 130.526 122.1 130.835 122.239C131.144 122.363 131.599 122.44 132.202 122.471C132.263 122.656 132.31 122.903 132.341 123.212C132.372 123.506 132.387 123.791 132.387 124.07C131.955 124.039 131.368 124.015 130.626 124C129.9 124 129.113 124 128.263 124C127.692 124 127.097 124 126.479 124C125.877 124.015 125.306 124.023 124.765 124.023C124.24 124.039 123.815 124.054 123.491 124.07C123.491 123.807 123.514 123.529 123.56 123.235C123.607 122.927 123.668 122.672 123.746 122.471C124.348 122.44 124.811 122.363 125.136 122.239C125.475 122.1 125.707 121.861 125.831 121.521C125.97 121.181 126.039 120.679 126.039 120.015V109.891H125.692ZM144.563 109.891C143.652 109.891 142.995 110.138 142.594 110.632C142.192 111.127 141.876 111.86 141.644 112.833C141.273 112.833 140.903 112.818 140.532 112.787C140.177 112.741 139.86 112.648 139.582 112.509C139.737 111.876 139.86 111.165 139.953 110.378C140.061 109.59 140.115 108.887 140.115 108.269C140.702 108.285 141.312 108.3 141.945 108.316C142.578 108.331 143.297 108.339 144.1 108.339C144.918 108.339 145.891 108.339 147.019 108.339C148.548 108.339 149.845 108.339 150.911 108.339C151.977 108.323 152.95 108.3 153.83 108.269C153.83 108.887 153.869 109.574 153.946 110.331C154.023 111.073 154.139 111.791 154.293 112.486C153.753 112.718 153.05 112.833 152.185 112.833C152.031 111.814 151.76 111.073 151.374 110.609C150.988 110.131 150.386 109.891 149.567 109.891H148.918V120.015C148.918 120.679 148.973 121.181 149.081 121.521C149.189 121.861 149.397 122.1 149.706 122.239C150.015 122.363 150.471 122.44 151.073 122.471C151.135 122.656 151.181 122.903 151.212 123.212C151.243 123.506 151.258 123.791 151.258 124.07C150.826 124.039 150.239 124.015 149.498 124C148.772 124 147.984 124 147.135 124C146.563 124 145.969 124 145.351 124C144.748 124.015 144.177 124.023 143.636 124.023C143.111 124.039 142.686 124.054 142.362 124.07C142.362 123.807 142.385 123.529 142.432 123.235C142.478 122.927 142.54 122.672 142.617 122.471C143.219 122.44 143.683 122.363 144.007 122.239C144.347 122.1 144.578 121.861 144.702 121.521C144.841 121.181 144.911 120.679 144.911 120.015V109.891H144.563ZM169.449 119.343C169.882 119.405 170.276 119.498 170.631 119.621C171.002 119.745 171.28 119.899 171.465 120.085C171.295 120.61 171.148 121.228 171.025 121.938C170.901 122.649 170.809 123.351 170.747 124.046C170.33 124.031 169.797 124.023 169.148 124.023C168.5 124.023 167.805 124.015 167.063 124C166.337 124 165.642 124 164.978 124C164.561 124 164.021 124 163.356 124C162.708 124.015 162.028 124.023 161.318 124.023C160.623 124.023 159.982 124.031 159.395 124.046C158.808 124.062 158.383 124.07 158.121 124.07C158.121 123.761 158.128 123.467 158.144 123.189C158.175 122.911 158.221 122.672 158.283 122.471C158.7 122.44 159.016 122.363 159.233 122.239C159.464 122.1 159.619 121.861 159.696 121.521C159.789 121.166 159.835 120.648 159.835 119.969V112.277C159.835 111.629 159.789 111.142 159.696 110.818C159.619 110.493 159.464 110.27 159.233 110.146C159.016 110.007 158.692 109.914 158.26 109.868C158.213 109.667 158.175 109.412 158.144 109.103C158.128 108.779 158.121 108.501 158.121 108.269C158.445 108.285 158.854 108.3 159.348 108.316C159.843 108.316 160.36 108.323 160.901 108.339C161.441 108.339 161.966 108.339 162.476 108.339C162.986 108.339 163.418 108.339 163.773 108.339C165.503 108.339 166.839 108.331 167.781 108.316C168.739 108.3 169.511 108.285 170.098 108.269C170.114 108.656 170.137 109.096 170.168 109.59C170.214 110.069 170.268 110.548 170.33 111.026C170.407 111.505 170.492 111.922 170.585 112.277C170.338 112.385 170.052 112.478 169.727 112.555C169.419 112.617 169.032 112.648 168.569 112.648C168.492 112.123 168.345 111.652 168.129 111.235C167.928 110.802 167.596 110.47 167.133 110.239C166.685 109.992 166.052 109.868 165.233 109.868H163.843V115.405H164.214C165.017 115.405 165.557 115.281 165.835 115.034C166.113 114.787 166.26 114.347 166.276 113.714C166.523 113.621 166.808 113.559 167.133 113.528C167.457 113.482 167.774 113.459 168.083 113.459C168.052 113.83 168.029 114.231 168.013 114.664C167.998 115.096 167.99 115.583 167.99 116.123C167.99 116.71 167.998 117.227 168.013 117.675C168.029 118.108 168.052 118.502 168.083 118.857C167.712 118.857 167.388 118.841 167.11 118.811C166.832 118.78 166.569 118.726 166.322 118.648C166.26 117.969 166.082 117.521 165.789 117.305C165.496 117.073 164.97 116.957 164.214 116.957H163.843V119.876C163.843 120.88 163.966 121.56 164.214 121.915C164.476 122.27 164.978 122.448 165.719 122.448H166.044C167.048 122.448 167.789 122.201 168.268 121.706C168.747 121.212 169.141 120.425 169.449 119.343ZM186.078 124.209C185.785 123.606 185.522 123.027 185.29 122.471C185.059 121.899 184.819 121.32 184.572 120.733C184.248 119.961 183.947 119.359 183.669 118.926C183.406 118.478 183.043 118.069 182.58 117.698C182.256 117.714 181.916 117.714 181.56 117.698V119.853C181.56 120.61 181.599 121.174 181.676 121.544C181.754 121.899 181.877 122.139 182.047 122.262C182.232 122.386 182.479 122.456 182.788 122.471C182.835 122.625 182.866 122.857 182.881 123.166C182.912 123.475 182.927 123.776 182.927 124.07C182.634 124.054 182.256 124.039 181.792 124.023C181.329 124.023 180.865 124.015 180.402 124C179.939 124 179.545 124 179.221 124C178.649 124 178.062 124 177.46 124C176.858 124.015 176.317 124.039 175.838 124.07C175.838 123.421 175.892 122.888 176 122.471C176.417 122.44 176.734 122.363 176.95 122.239C177.182 122.1 177.336 121.861 177.414 121.521C177.506 121.181 177.553 120.679 177.553 120.015V112.254C177.553 111.605 177.506 111.119 177.414 110.795C177.336 110.455 177.182 110.223 176.95 110.1C176.734 109.976 176.41 109.891 175.977 109.845C175.931 109.629 175.892 109.351 175.861 109.011C175.846 108.671 175.838 108.424 175.838 108.269C176.24 108.285 176.765 108.3 177.414 108.316C178.078 108.331 178.773 108.339 179.499 108.339C179.993 108.339 180.649 108.323 181.468 108.293C182.286 108.262 183.151 108.246 184.063 108.246C185.36 108.246 186.418 108.439 187.236 108.825C188.055 109.196 188.657 109.706 189.044 110.354C189.445 111.003 189.646 111.714 189.646 112.486C189.646 113.768 189.322 114.803 188.673 115.59C188.04 116.363 187.221 116.88 186.217 117.142C186.588 117.343 186.904 117.575 187.167 117.837C187.43 118.085 187.692 118.432 187.955 118.88C188.217 119.328 188.549 119.93 188.951 120.687C189.183 121.12 189.383 121.459 189.553 121.706C189.739 121.938 189.947 122.108 190.179 122.216C190.41 122.309 190.712 122.371 191.082 122.401C191.082 122.973 191.013 123.506 190.874 124C189.823 124 188.881 124.015 188.047 124.046C187.229 124.077 186.572 124.131 186.078 124.209ZM182.719 109.822C182.302 109.822 181.916 109.876 181.56 109.984V116.03C181.854 116.077 182.109 116.1 182.325 116.1C182.866 116.1 183.375 115.992 183.854 115.776C184.333 115.544 184.719 115.196 185.012 114.733C185.321 114.254 185.476 113.66 185.476 112.949C185.476 111.961 185.236 111.196 184.758 110.656C184.279 110.1 183.599 109.822 182.719 109.822ZM196.99 112.277C196.99 111.629 196.951 111.142 196.874 110.818C196.796 110.493 196.642 110.27 196.41 110.146C196.194 110.007 195.878 109.914 195.461 109.868C195.337 109.405 195.275 108.872 195.275 108.269C195.538 108.285 195.893 108.3 196.341 108.316C196.804 108.316 197.283 108.323 197.777 108.339C198.271 108.339 198.704 108.339 199.075 108.339C199.615 108.339 200.241 108.331 200.951 108.316C201.662 108.3 202.249 108.285 202.712 108.269C202.712 108.563 202.696 108.841 202.666 109.103C202.65 109.351 202.604 109.605 202.527 109.868C202.094 109.914 201.77 109.999 201.554 110.123C201.337 110.246 201.191 110.478 201.113 110.818C201.036 111.142 200.997 111.629 200.997 112.277V120.015C200.997 120.679 201.036 121.181 201.113 121.521C201.206 121.861 201.36 122.1 201.577 122.239C201.793 122.363 202.11 122.44 202.527 122.471C202.588 122.656 202.635 122.903 202.666 123.212C202.696 123.506 202.712 123.791 202.712 124.07C202.326 124.039 201.824 124.015 201.206 124C200.604 124 199.947 124 199.237 124C198.526 124 197.808 124 197.082 124C196.372 124.015 195.769 124.039 195.275 124.07C195.275 123.807 195.291 123.529 195.322 123.235C195.368 122.927 195.414 122.672 195.461 122.471C195.878 122.44 196.194 122.363 196.41 122.239C196.627 122.1 196.773 121.861 196.851 121.521C196.943 121.181 196.99 120.679 196.99 120.015V112.277ZM207.127 124.07C207.127 123.745 207.134 123.459 207.15 123.212C207.181 122.95 207.235 122.703 207.312 122.471C207.775 122.425 208.138 122.309 208.401 122.123C208.663 121.938 208.849 121.614 208.957 121.15C209.065 120.687 209.119 120.015 209.119 119.135V110.887L208.841 110.54C208.686 110.308 208.509 110.154 208.308 110.076C208.107 109.984 207.775 109.914 207.312 109.868C207.25 109.636 207.204 109.389 207.173 109.127C207.142 108.849 207.127 108.563 207.127 108.269C207.327 108.285 207.598 108.3 207.937 108.316C208.277 108.316 208.625 108.323 208.98 108.339C209.335 108.339 209.629 108.339 209.86 108.339C210.231 108.339 210.64 108.339 211.088 108.339C211.551 108.323 211.93 108.3 212.223 108.269L219.266 117.861V113.181C219.266 112.301 219.212 111.636 219.104 111.188C219.011 110.725 218.834 110.401 218.571 110.215C218.309 110.03 217.915 109.914 217.39 109.868C217.328 109.605 217.282 109.335 217.251 109.057C217.235 108.764 217.227 108.501 217.227 108.269C217.459 108.285 217.745 108.3 218.085 108.316C218.424 108.316 218.772 108.323 219.127 108.339C219.498 108.339 219.807 108.339 220.054 108.339C220.425 108.339 220.842 108.331 221.305 108.316C221.784 108.3 222.162 108.285 222.44 108.269C222.44 108.547 222.432 108.818 222.417 109.08C222.401 109.343 222.363 109.605 222.301 109.868C221.915 109.914 221.614 110.03 221.398 110.215C221.197 110.385 221.058 110.702 220.981 111.165C220.903 111.613 220.865 112.285 220.865 113.181V124C220.587 124.077 220.301 124.124 220.008 124.139C219.714 124.17 219.39 124.185 219.035 124.185L210.717 113.019V119.135C210.717 120.015 210.764 120.687 210.856 121.15C210.949 121.614 211.119 121.938 211.366 122.123C211.629 122.309 211.999 122.425 212.478 122.471C212.54 122.703 212.579 122.957 212.594 123.235C212.609 123.498 212.617 123.776 212.617 124.07C212.293 124.039 211.86 124.015 211.32 124C210.795 124 210.339 124 209.953 124C209.706 124 209.397 124 209.026 124C208.656 124.015 208.293 124.023 207.937 124.023C207.598 124.039 207.327 124.054 207.127 124.07ZM235.084 124.209C233.431 124.209 232.002 123.884 230.798 123.235C229.593 122.587 228.659 121.652 227.994 120.432C227.346 119.212 227.021 117.745 227.021 116.03C227.021 114.347 227.369 112.918 228.064 111.744C228.759 110.555 229.724 109.659 230.96 109.057C232.195 108.439 233.624 108.13 235.246 108.13C236.296 108.13 237.3 108.246 238.258 108.478C239.215 108.71 240.034 108.988 240.713 109.312C240.621 109.837 240.551 110.409 240.505 111.026C240.474 111.629 240.458 112.254 240.458 112.903C240.165 113.042 239.833 113.127 239.462 113.158C239.107 113.173 238.767 113.181 238.443 113.181C238.381 111.868 238.065 110.965 237.493 110.47C236.922 109.976 236.165 109.729 235.223 109.729C234.25 109.729 233.462 110.007 232.86 110.563C232.273 111.104 231.84 111.814 231.562 112.694C231.3 113.575 231.168 114.501 231.168 115.474C231.168 116.834 231.331 118.046 231.655 119.112C231.995 120.177 232.481 121.019 233.114 121.637C233.748 122.239 234.512 122.54 235.408 122.54C235.933 122.54 236.335 122.486 236.613 122.378C236.844 122.286 237.03 122.131 237.169 121.915C237.308 121.699 237.377 121.289 237.377 120.687V119.807C237.377 119.282 237.331 118.888 237.238 118.625C237.146 118.363 236.976 118.185 236.729 118.092C236.481 118 236.118 117.946 235.64 117.93C235.532 117.529 235.477 116.996 235.477 116.332C235.895 116.363 236.389 116.386 236.96 116.401C237.547 116.401 238.095 116.401 238.605 116.401C239.084 116.401 239.624 116.401 240.227 116.401C240.829 116.386 241.347 116.37 241.779 116.355C241.779 116.602 241.771 116.864 241.756 117.142C241.74 117.42 241.702 117.683 241.64 117.93C241.223 117.961 240.96 118.077 240.852 118.278C240.76 118.463 240.713 118.88 240.713 119.529V120.201C240.713 120.741 240.736 121.166 240.783 121.475C240.829 121.768 240.93 122.085 241.084 122.425C240.374 122.934 239.501 123.359 238.466 123.699C237.431 124.039 236.304 124.209 235.084 124.209Z" fill="white"/>
</g>
<g filter="url(#filter1_b_155:527)">
<path d="M15.0228 175.685C12.8659 175.685 10.8397 175.439 8.94422 174.949C7.08143 174.459 5.26767 173.74 3.50292 172.792C3.76437 171.485 3.92777 170.145 3.99313 168.773C4.09117 167.4 4.14019 166.093 4.14019 164.851C4.9572 164.622 5.80689 164.475 6.68927 164.41C7.60432 164.344 8.47035 164.312 9.28736 164.312C9.41808 166.273 9.66319 167.825 10.0227 168.969C10.4148 170.08 11.0031 170.881 11.7874 171.371C12.6044 171.861 13.6829 172.106 15.0228 172.106C16.8529 172.106 18.1601 171.73 18.9444 170.979C19.7288 170.194 20.1209 169.312 20.1209 168.331C20.1209 167.318 19.7288 166.485 18.9444 165.831C18.1928 165.145 17.2124 164.524 16.0032 163.969C14.794 163.38 13.5031 162.776 12.1306 162.155C10.7907 161.501 9.51612 160.733 8.30695 159.851C7.09777 158.936 6.10102 157.808 5.31669 156.468C4.56504 155.129 4.18921 153.462 4.18921 151.468C4.18921 149.181 4.69576 147.318 5.70885 145.88C6.75463 144.409 8.14354 143.347 9.87561 142.694C11.6077 142.007 13.5195 141.664 15.611 141.664C16.8202 141.664 18.0457 141.762 19.2876 141.958C20.5294 142.154 21.6732 142.416 22.719 142.743C23.7975 143.07 24.6472 143.429 25.2681 143.821C25.2681 145.128 25.2844 146.452 25.3171 147.792C25.3498 149.132 25.4315 150.194 25.5622 150.978C24.974 151.338 24.1896 151.599 23.2092 151.763C22.2615 151.893 21.4118 151.959 20.6602 151.959C20.2353 149.279 19.549 147.481 18.6013 146.566C17.6862 145.619 16.5261 145.145 15.1208 145.145C13.9116 145.145 12.8985 145.423 12.0815 145.978C11.2972 146.534 10.905 147.367 10.905 148.478C10.905 149.589 11.3135 150.521 12.1306 151.272C12.9476 152.024 13.9933 152.71 15.2679 153.331C16.5424 153.919 17.8987 154.54 19.3366 155.194C20.7745 155.848 22.1308 156.616 23.4053 157.498C24.6798 158.38 25.7256 159.491 26.5426 160.831C27.3596 162.139 27.7682 163.773 27.7682 165.733C27.7682 168.707 26.6897 171.109 24.5328 172.939C22.3759 174.77 19.2059 175.685 15.0228 175.685ZM35.5552 141.958C36.078 141.991 36.8297 142.024 37.8101 142.056C38.8232 142.056 39.82 142.073 40.8004 142.105C41.8135 142.105 42.5815 142.105 43.1043 142.105C43.5945 142.105 44.3135 142.105 45.2612 142.105C46.2417 142.105 47.2384 142.089 48.2515 142.056C49.2973 142.024 50.1797 141.991 50.8986 141.958C50.8986 142.547 50.8659 143.135 50.8006 143.723C50.7679 144.279 50.6862 144.818 50.5555 145.341C49.5097 145.472 48.7581 145.7 48.3005 146.027C47.843 146.321 47.6306 146.844 47.6633 147.596C47.7286 148.347 48.0227 149.442 48.5456 150.88C49.1339 152.645 49.7385 154.54 50.3594 156.567C50.9803 158.56 51.6176 160.684 52.2712 162.939L59.5753 142.056C60.0982 141.926 60.6701 141.844 61.291 141.811C61.9446 141.746 62.5655 141.713 63.1538 141.713C64.6571 145.504 66.0787 149.164 67.4186 152.694C68.7585 156.191 70.0984 159.786 71.4383 163.478L74.8697 152.351C75.5887 149.9 75.7521 148.184 75.3599 147.204C74.9678 146.223 73.971 145.602 72.3697 145.341C72.1736 144.851 72.0429 144.295 71.9775 143.674C71.9448 143.053 71.9285 142.481 71.9285 141.958C72.6148 141.991 73.4971 142.024 74.5756 142.056C75.6541 142.089 76.6345 142.105 77.5168 142.105C78.3012 142.105 79.1999 142.089 80.213 142.056C81.2261 142.024 82.0594 141.991 82.713 141.958C82.713 142.547 82.6804 143.119 82.615 143.674C82.5823 144.23 82.4679 144.785 82.2718 145.341C81.6836 145.537 81.1771 145.864 80.7522 146.321C80.36 146.746 79.9679 147.432 79.5757 148.38C79.1835 149.328 78.726 150.668 78.2031 152.4L71.3402 175.292C70.8827 175.423 70.1964 175.521 69.2814 175.587C68.399 175.652 67.5983 175.685 66.8794 175.685C65.5395 171.959 64.2322 168.413 62.9577 165.047C61.6832 161.648 60.3106 158.119 58.84 154.459L51.5359 175.341C50.9803 175.472 50.2614 175.554 49.379 175.587C48.4966 175.652 47.7776 175.685 47.2221 175.685C45.9149 171.305 44.6076 167.057 43.3004 162.939C42.0259 158.821 40.833 155.063 39.7219 151.664C39.101 149.802 38.6108 148.445 38.2513 147.596C37.8918 146.713 37.5323 146.158 37.1728 145.929C36.846 145.668 36.4048 145.504 35.8493 145.439C35.7186 144.916 35.6369 144.36 35.6042 143.772C35.5715 143.184 35.5552 142.579 35.5552 141.958ZM107.306 175.685C103.842 175.685 100.868 174.966 98.3839 173.528C95.9002 172.057 93.9721 170.031 92.5995 167.449C91.2596 164.867 90.5897 161.893 90.5897 158.527C90.5897 155.096 91.3086 152.122 92.7466 149.606C94.1845 147.057 96.1617 145.096 98.6781 143.723C101.194 142.351 104.07 141.664 107.306 141.664C110.639 141.664 113.564 142.351 116.08 143.723C118.597 145.063 120.558 146.975 121.963 149.459C123.368 151.91 124.071 154.785 124.071 158.086C124.071 161.518 123.368 164.557 121.963 167.204C120.59 169.851 118.646 171.926 116.129 173.43C113.613 174.933 110.672 175.685 107.306 175.685ZM107.992 172.204C109.561 172.204 110.884 171.665 111.963 170.586C113.041 169.475 113.858 167.939 114.414 165.979C115.002 164.018 115.296 161.746 115.296 159.165C115.296 156.55 114.937 154.181 114.218 152.057C113.499 149.9 112.486 148.184 111.178 146.909C109.871 145.635 108.335 144.998 106.57 144.998C104.348 144.998 102.583 146.092 101.276 148.282C100.002 150.439 99.3644 153.446 99.3644 157.302C99.3644 159.982 99.6748 162.449 100.296 164.704C100.917 166.959 101.864 168.773 103.139 170.145C104.413 171.518 106.031 172.204 107.992 172.204ZM155.637 175.685C155.016 174.41 154.46 173.185 153.97 172.008C153.48 170.799 152.973 169.573 152.45 168.331C151.764 166.697 151.127 165.423 150.538 164.508C149.983 163.56 149.215 162.694 148.235 161.91C147.548 161.942 146.829 161.942 146.078 161.91V166.469C146.078 168.07 146.159 169.263 146.323 170.047C146.486 170.799 146.748 171.305 147.107 171.567C147.499 171.828 148.022 171.975 148.676 172.008C148.774 172.335 148.839 172.825 148.872 173.479C148.937 174.132 148.97 174.77 148.97 175.39C148.349 175.358 147.548 175.325 146.568 175.292C145.587 175.292 144.607 175.276 143.627 175.243C142.646 175.243 141.813 175.243 141.127 175.243C139.917 175.243 138.675 175.243 137.401 175.243C136.126 175.276 134.983 175.325 133.969 175.39C133.969 174.018 134.084 172.89 134.313 172.008C135.195 171.943 135.865 171.779 136.322 171.518C136.813 171.224 137.139 170.717 137.303 169.998C137.499 169.279 137.597 168.217 137.597 166.812V150.39C137.597 149.017 137.499 147.988 137.303 147.302C137.139 146.583 136.813 146.092 136.322 145.831C135.865 145.57 135.179 145.39 134.264 145.292C134.166 144.834 134.084 144.246 134.019 143.527C133.986 142.808 133.969 142.285 133.969 141.958C134.819 141.991 135.93 142.024 137.303 142.056C138.708 142.089 140.179 142.105 141.715 142.105C142.761 142.105 144.149 142.073 145.882 142.007C147.614 141.942 149.444 141.909 151.372 141.909C154.117 141.909 156.356 142.318 158.088 143.135C159.82 143.919 161.094 144.998 161.911 146.37C162.761 147.743 163.186 149.246 163.186 150.88C163.186 153.593 162.5 155.782 161.127 157.449C159.787 159.083 158.055 160.178 155.931 160.733C156.715 161.158 157.385 161.648 157.941 162.204C158.496 162.727 159.052 163.462 159.607 164.41C160.163 165.358 160.865 166.632 161.715 168.233C162.205 169.149 162.63 169.867 162.99 170.39C163.382 170.881 163.823 171.24 164.313 171.469C164.803 171.665 165.441 171.796 166.225 171.861C166.225 173.07 166.078 174.198 165.784 175.243C163.562 175.243 161.568 175.276 159.803 175.341C158.071 175.407 156.682 175.521 155.637 175.685ZM148.529 145.243C147.646 145.243 146.829 145.357 146.078 145.586V158.38C146.699 158.478 147.238 158.527 147.695 158.527C148.839 158.527 149.918 158.299 150.931 157.841C151.944 157.351 152.761 156.616 153.382 155.635C154.035 154.622 154.362 153.364 154.362 151.861C154.362 149.769 153.856 148.151 152.842 147.008C151.829 145.831 150.391 145.243 148.529 145.243ZM175.097 175.39C175.097 174.737 175.113 174.116 175.146 173.528C175.211 172.939 175.309 172.433 175.44 172.008C176.323 171.943 176.993 171.779 177.45 171.518C177.94 171.224 178.267 170.717 178.43 169.998C178.627 169.247 178.725 168.152 178.725 166.714V150.439C178.725 149.066 178.627 148.037 178.43 147.351C178.267 146.664 177.94 146.19 177.45 145.929C176.993 145.635 176.306 145.439 175.391 145.341C175.293 144.916 175.211 144.377 175.146 143.723C175.113 143.037 175.097 142.449 175.097 141.958C175.783 141.991 176.649 142.024 177.695 142.056C178.774 142.056 179.901 142.073 181.078 142.105C182.254 142.105 183.382 142.105 184.46 142.105C185.212 142.105 186.029 142.089 186.911 142.056C187.793 142.024 188.757 142.007 189.803 142.007C192.124 142.007 194.346 142.22 196.47 142.645C198.627 143.037 200.539 143.788 202.205 144.9C203.905 146.011 205.245 147.612 206.225 149.704C207.206 151.795 207.696 154.508 207.696 157.841C207.696 161.011 207.238 163.658 206.323 165.782C205.408 167.874 204.215 169.557 202.745 170.832C201.307 172.106 199.754 173.07 198.088 173.724C196.454 174.345 194.885 174.753 193.382 174.949C191.878 175.145 190.62 175.243 189.607 175.243C188.725 175.243 187.581 175.243 186.176 175.243C184.803 175.276 183.365 175.292 181.862 175.292C180.391 175.292 179.035 175.309 177.793 175.341C176.551 175.374 175.653 175.39 175.097 175.39ZM191.176 171.959C191.927 171.959 192.761 171.812 193.676 171.518C194.591 171.191 195.441 170.586 196.225 169.704C197.042 168.789 197.712 167.449 198.235 165.684C198.758 163.92 199.019 161.583 199.019 158.674C199.019 155.178 198.562 152.465 197.647 150.537C196.764 148.576 195.604 147.204 194.166 146.419C192.728 145.635 191.209 145.243 189.607 145.243C188.692 145.243 187.891 145.373 187.205 145.635V166.518C187.205 168.642 187.467 170.08 187.989 170.832C188.545 171.583 189.607 171.959 191.176 171.959ZM229.182 175.685C227.025 175.685 224.999 175.439 223.103 174.949C221.24 174.459 219.427 173.74 217.662 172.792C217.923 171.485 218.087 170.145 218.152 168.773C218.25 167.4 218.299 166.093 218.299 164.851C219.116 164.622 219.966 164.475 220.848 164.41C221.763 164.344 222.629 164.312 223.446 164.312C223.577 166.273 223.822 167.825 224.182 168.969C224.574 170.08 225.162 170.881 225.946 171.371C226.763 171.861 227.842 172.106 229.182 172.106C231.012 172.106 232.319 171.73 233.103 170.979C233.888 170.194 234.28 169.312 234.28 168.331C234.28 167.318 233.888 166.485 233.103 165.831C232.352 165.145 231.371 164.524 230.162 163.969C228.953 163.38 227.662 162.776 226.29 162.155C224.95 161.501 223.675 160.733 222.466 159.851C221.257 158.936 220.26 157.808 219.476 156.468C218.724 155.129 218.348 153.462 218.348 151.468C218.348 149.181 218.855 147.318 219.868 145.88C220.914 144.409 222.303 143.347 224.035 142.694C225.767 142.007 227.678 141.664 229.77 141.664C230.979 141.664 232.205 141.762 233.447 141.958C234.688 142.154 235.832 142.416 236.878 142.743C237.956 143.07 238.806 143.429 239.427 143.821C239.427 145.128 239.443 146.452 239.476 147.792C239.509 149.132 239.591 150.194 239.721 150.978C239.133 151.338 238.349 151.599 237.368 151.763C236.421 151.893 235.571 151.959 234.819 151.959C234.394 149.279 233.708 147.481 232.76 146.566C231.845 145.619 230.685 145.145 229.28 145.145C228.071 145.145 227.058 145.423 226.241 145.978C225.456 146.534 225.064 147.367 225.064 148.478C225.064 149.589 225.473 150.521 226.29 151.272C227.107 152.024 228.152 152.71 229.427 153.331C230.701 153.919 232.058 154.54 233.496 155.194C234.934 155.848 236.29 156.616 237.564 157.498C238.839 158.38 239.885 159.491 240.702 160.831C241.519 162.139 241.927 163.773 241.927 165.733C241.927 168.707 240.849 171.109 238.692 172.939C236.535 174.77 233.365 175.685 229.182 175.685Z" fill="white"/>
</g>
<defs>
<filter id="filter0_b_155:527" x="-4.12151" y="103.43" width="250.601" height="25.4793" filterUnits="userSpaceOnUse" color-interpolation-filters="sRGB">
<feFlood flood-opacity="0" result="BackgroundImageFix"/>
<feGaussianBlur in="BackgroundImage" stdDeviation="2.35031"/>
<feComposite in2="SourceAlpha" operator="in" result="effect1_backgroundBlur_155:527"/>
<feBlend mode="normal" in="SourceGraphic" in2="effect1_backgroundBlur_155:527" result="shape"/>
</filter>
<filter id="filter1_b_155:527" x="-1.19768" y="136.964" width="247.826" height="43.4215" filterUnits="userSpaceOnUse" color-interpolation-filters="sRGB">
<feFlood flood-opacity="0" result="BackgroundImageFix"/>
<feGaussianBlur in="BackgroundImage" stdDeviation="2.35031"/>
<feComposite in2="SourceAlpha" operator="in" result="effect1_backgroundBlur_155:527"/>
<feBlend mode="normal" in="SourceGraphic" in2="effect1_backgroundBlur_155:527" result="shape"/>
</filter>
<linearGradient id="paint0_linear_155:527" x1="218.507" y1="39.4262" x2="40.2587" y2="218.09" gradientUnits="userSpaceOnUse">
<stop stop-color="white" stop-opacity="0.61"/>
<stop offset="1" stop-color="white" stop-opacity="0.31"/>
</linearGradient>
<linearGradient id="paint1_linear_155:527" x1="218.507" y1="39.4262" x2="40.2587" y2="218.09" gradientUnits="userSpaceOnUse">
<stop stop-color="white" stop-opacity="0.61"/>
<stop offset="1" stop-color="white" stop-opacity="0.31"/>
</linearGradient>
<linearGradient id="paint2_linear_155:527" x1="218.507" y1="39.4262" x2="40.2587" y2="218.09" gradientUnits="userSpaceOnUse">
<stop stop-color="white" stop-opacity="0.61"/>
<stop offset="1" stop-color="white" stop-opacity="0.31"/>
</linearGradient>
<linearGradient id="paint3_linear_155:527" x1="218.507" y1="39.4262" x2="40.2587" y2="218.09" gradientUnits="userSpaceOnUse">
<stop stop-color="white" stop-opacity="0.61"/>
<stop offset="1" stop-color="white" stop-opacity="0.31"/>
</linearGradient>
<linearGradient id="paint4_linear_155:527" x1="218.507" y1="39.4262" x2="40.2587" y2="218.09" gradientUnits="userSpaceOnUse">
<stop stop-color="white" stop-opacity="0.61"/>
<stop offset="1" stop-color="white" stop-opacity="0.31"/>
</linearGradient>
<linearGradient id="paint5_linear_155:527" x1="218.507" y1="39.4262" x2="40.2587" y2="218.09" gradientUnits="userSpaceOnUse">
<stop stop-color="white" stop-opacity="0.61"/>
<stop offset="1" stop-color="white" stop-opacity="0.31"/>
</linearGradient>
<linearGradient id="paint6_linear_155:527" x1="218.507" y1="39.4262" x2="40.2587" y2="218.09" gradientUnits="userSpaceOnUse">
<stop stop-color="white" stop-opacity="0.61"/>
<stop offset="1" stop-color="white" stop-opacity="0.31"/>
</linearGradient>
<linearGradient id="paint7_linear_155:527" x1="218.507" y1="39.4262" x2="40.2587" y2="218.09" gradientUnits="userSpaceOnUse">
<stop stop-color="white" stop-opacity="0.61"/>
<stop offset="1" stop-color="white" stop-opacity="0.31"/>
</linearGradient>
<linearGradient id="paint8_linear_155:527" x1="218.507" y1="39.4262" x2="40.2587" y2="218.09" gradientUnits="userSpaceOnUse">
<stop stop-color="white" stop-opacity="0.61"/>
<stop offset="1" stop-color="white" stop-opacity="0.31"/>
</linearGradient>
<linearGradient id="paint9_linear_155:527" x1="218.507" y1="39.4262" x2="40.2587" y2="218.09" gradientUnits="userSpaceOnUse">
<stop stop-color="white" stop-opacity="0.61"/>
<stop offset="1" stop-color="white" stop-opacity="0.31"/>
</linearGradient>
<linearGradient id="paint10_linear_155:527" x1="218.507" y1="39.4262" x2="40.2587" y2="218.09" gradientUnits="userSpaceOnUse">
<stop stop-color="white" stop-opacity="0.61"/>
<stop offset="1" stop-color="white" stop-opacity="0.31"/>
</linearGradient>
<linearGradient id="paint11_linear_155:527" x1="218.507" y1="39.4262" x2="40.2587" y2="218.09" gradientUnits="userSpaceOnUse">
<stop stop-color="white" stop-opacity="0.61"/>
<stop offset="1" stop-color="white" stop-opacity="0.31"/>
</linearGradient>
<linearGradient id="paint12_linear_155:527" x1="218.507" y1="39.4262" x2="40.2587" y2="218.09" gradientUnits="userSpaceOnUse">
<stop stop-color="white" stop-opacity="0.61"/>
<stop offset="1" stop-color="white" stop-opacity="0.31"/>
</linearGradient>
<linearGradient id="paint13_linear_155:527" x1="218.507" y1="39.4262" x2="40.2587" y2="218.09" gradientUnits="userSpaceOnUse">
<stop stop-color="white" stop-opacity="0.61"/>
<stop offset="1" stop-color="white" stop-opacity="0.31"/>
</linearGradient>
<linearGradient id="paint14_linear_155:527" x1="218.507" y1="39.4262" x2="40.2587" y2="218.09" gradientUnits="userSpaceOnUse">
<stop stop-color="white" stop-opacity="0.61"/>
<stop offset="1" stop-color="white" stop-opacity="0.31"/>
</linearGradient>
<linearGradient id="paint15_linear_155:527" x1="218.507" y1="39.4262" x2="40.2587" y2="218.09" gradientUnits="userSpaceOnUse">
<stop stop-color="white" stop-opacity="0.61"/>
<stop offset="1" stop-color="white" stop-opacity="0.31"/>
</linearGradient>
<linearGradient id="paint16_linear_155:527" x1="218.507" y1="39.4262" x2="40.2587" y2="218.09" gradientUnits="userSpaceOnUse">
<stop stop-color="white" stop-opacity="0.61"/>
<stop offset="1" stop-color="white" stop-opacity="0.31"/>
</linearGradient>
<linearGradient id="paint17_linear_155:527" x1="218.507" y1="39.4262" x2="40.2587" y2="218.09" gradientUnits="userSpaceOnUse">
<stop stop-color="white" stop-opacity="0.61"/>
<stop offset="1" stop-color="white" stop-opacity="0.31"/>
</linearGradient>
<linearGradient id="paint18_linear_155:527" x1="218.507" y1="39.4262" x2="40.2587" y2="218.09" gradientUnits="userSpaceOnUse">
<stop stop-color="white" stop-opacity="0.61"/>
<stop offset="1" stop-color="white" stop-opacity="0.31"/>
</linearGradient>
<linearGradient id="paint19_linear_155:527" x1="218.507" y1="39.4262" x2="40.2587" y2="218.09" gradientUnits="userSpaceOnUse">
<stop stop-color="white" stop-opacity="0.61"/>
<stop offset="1" stop-color="white" stop-opacity="0.31"/>
</linearGradient>
<linearGradient id="paint20_linear_155:527" x1="218.507" y1="39.4262" x2="40.2587" y2="218.09" gradientUnits="userSpaceOnUse">
<stop stop-color="white" stop-opacity="0.61"/>
<stop offset="1" stop-color="white" stop-opacity="0.31"/>
</linearGradient>
<linearGradient id="paint21_linear_155:527" x1="218.507" y1="39.4262" x2="40.2587" y2="218.09" gradientUnits="userSpaceOnUse">
<stop stop-color="white" stop-opacity="0.61"/>
<stop offset="1" stop-color="white" stop-opacity="0.31"/>
</linearGradient>
<linearGradient id="paint22_linear_155:527" x1="218.507" y1="39.4262" x2="40.2587" y2="218.09" gradientUnits="userSpaceOnUse">
<stop stop-color="white" stop-opacity="0.61"/>
<stop offset="1" stop-color="white" stop-opacity="0.31"/>
</linearGradient>
<linearGradient id="paint23_linear_155:527" x1="218.507" y1="39.4262" x2="40.2587" y2="218.09" gradientUnits="userSpaceOnUse">
<stop stop-color="white" stop-opacity="0.61"/>
<stop offset="1" stop-color="white" stop-opacity="0.31"/>
</linearGradient>
<linearGradient id="paint24_linear_155:527" x1="218.507" y1="39.4262" x2="40.2587" y2="218.09" gradientUnits="userSpaceOnUse">
<stop stop-color="white" stop-opacity="0.61"/>
<stop offset="1" stop-color="white" stop-opacity="0.31"/>
</linearGradient>
<linearGradient id="paint25_linear_155:527" x1="218.507" y1="39.4262" x2="40.2587" y2="218.09" gradientUnits="userSpaceOnUse">
<stop stop-color="white" stop-opacity="0.61"/>
<stop offset="1" stop-color="white" stop-opacity="0.31"/>
</linearGradient>
<linearGradient id="paint26_linear_155:527" x1="218.507" y1="39.4262" x2="40.2587" y2="218.09" gradientUnits="userSpaceOnUse">
<stop stop-color="white" stop-opacity="0.61"/>
<stop offset="1" stop-color="white" stop-opacity="0.31"/>
</linearGradient>
<linearGradient id="paint27_linear_155:527" x1="218.507" y1="39.4262" x2="40.2587" y2="218.09" gradientUnits="userSpaceOnUse">
<stop stop-color="white" stop-opacity="0.61"/>
<stop offset="1" stop-color="white" stop-opacity="0.31"/>
</linearGradient>
<linearGradient id="paint28_linear_155:527" x1="218.507" y1="39.4262" x2="40.2587" y2="218.09" gradientUnits="userSpaceOnUse">
<stop stop-color="white" stop-opacity="0.61"/>
<stop offset="1" stop-color="white" stop-opacity="0.31"/>
</linearGradient>
<linearGradient id="paint29_linear_155:527" x1="218.507" y1="39.4262" x2="40.2587" y2="218.09" gradientUnits="userSpaceOnUse">
<stop stop-color="white" stop-opacity="0.61"/>
<stop offset="1" stop-color="white" stop-opacity="0.31"/>
</linearGradient>
<linearGradient id="paint30_linear_155:527" x1="218.507" y1="39.4262" x2="40.2587" y2="218.09" gradientUnits="userSpaceOnUse">
<stop stop-color="white" stop-opacity="0.61"/>
<stop offset="1" stop-color="white" stop-opacity="0.31"/>
</linearGradient>
<linearGradient id="paint31_linear_155:527" x1="218.507" y1="39.4262" x2="40.2587" y2="218.09" gradientUnits="userSpaceOnUse">
<stop stop-color="white" stop-opacity="0.61"/>
<stop offset="1" stop-color="white" stop-opacity="0.31"/>
</linearGradient>
<linearGradient id="paint32_linear_155:527" x1="218.507" y1="39.4262" x2="40.2587" y2="218.09" gradientUnits="userSpaceOnUse">
<stop stop-color="white" stop-opacity="0.61"/>
<stop offset="1" stop-color="white" stop-opacity="0.31"/>
</linearGradient>
<linearGradient id="paint33_linear_155:527" x1="218.507" y1="39.4262" x2="40.2587" y2="218.09" gradientUnits="userSpaceOnUse">
<stop stop-color="white" stop-opacity="0.61"/>
<stop offset="1" stop-color="white" stop-opacity="0.31"/>
</linearGradient>
<linearGradient id="paint34_linear_155:527" x1="218.507" y1="39.4262" x2="40.2587" y2="218.09" gradientUnits="userSpaceOnUse">
<stop stop-color="white" stop-opacity="0.61"/>
<stop offset="1" stop-color="white" stop-opacity="0.31"/>
</linearGradient>
<linearGradient id="paint35_linear_155:527" x1="218.507" y1="39.4262" x2="40.2587" y2="218.09" gradientUnits="userSpaceOnUse">
<stop stop-color="white" stop-opacity="0.61"/>
<stop offset="1" stop-color="white" stop-opacity="0.31"/>
</linearGradient>
<linearGradient id="paint36_linear_155:527" x1="218.507" y1="39.4262" x2="40.2587" y2="218.09" gradientUnits="userSpaceOnUse">
<stop stop-color="white" stop-opacity="0.61"/>
<stop offset="1" stop-color="white" stop-opacity="0.31"/>
</linearGradient>
<linearGradient id="paint37_linear_155:527" x1="218.507" y1="39.4262" x2="40.2587" y2="218.09" gradientUnits="userSpaceOnUse">
<stop stop-color="white" stop-opacity="0.61"/>
<stop offset="1" stop-color="white" stop-opacity="0.31"/>
</linearGradient>
<linearGradient id="paint38_linear_155:527" x1="218.507" y1="39.4262" x2="40.2587" y2="218.09" gradientUnits="userSpaceOnUse">
<stop stop-color="white" stop-opacity="0.61"/>
<stop offset="1" stop-color="white" stop-opacity="0.31"/>
</linearGradient>
<linearGradient id="paint39_linear_155:527" x1="218.507" y1="39.4262" x2="40.2587" y2="218.09" gradientUnits="userSpaceOnUse">
<stop stop-color="white" stop-opacity="0.61"/>
<stop offset="1" stop-color="white" stop-opacity="0.31"/>
</linearGradient>
<linearGradient id="paint40_linear_155:527" x1="218.507" y1="39.4262" x2="40.2587" y2="218.09" gradientUnits="userSpaceOnUse">
<stop stop-color="white" stop-opacity="0.61"/>
<stop offset="1" stop-color="white" stop-opacity="0.31"/>
</linearGradient>
<linearGradient id="paint41_linear_155:527" x1="218.507" y1="39.4262" x2="40.2587" y2="218.09" gradientUnits="userSpaceOnUse">
<stop stop-color="white" stop-opacity="0.61"/>
<stop offset="1" stop-color="white" stop-opacity="0.31"/>
</linearGradient>
<linearGradient id="paint42_linear_155:527" x1="218.507" y1="39.4262" x2="40.2587" y2="218.09" gradientUnits="userSpaceOnUse">
<stop stop-color="white" stop-opacity="0.61"/>
<stop offset="1" stop-color="white" stop-opacity="0.31"/>
</linearGradient>
<linearGradient id="paint43_linear_155:527" x1="218.507" y1="39.4262" x2="40.2587" y2="218.09" gradientUnits="userSpaceOnUse">
<stop stop-color="white" stop-opacity="0.61"/>
<stop offset="1" stop-color="white" stop-opacity="0.31"/>
</linearGradient>
<linearGradient id="paint44_linear_155:527" x1="218.507" y1="39.4262" x2="40.2587" y2="218.09" gradientUnits="userSpaceOnUse">
<stop stop-color="white" stop-opacity="0.61"/>
<stop offset="1" stop-color="white" stop-opacity="0.31"/>
</linearGradient>
<linearGradient id="paint45_linear_155:527" x1="218.507" y1="39.4262" x2="40.2587" y2="218.09" gradientUnits="userSpaceOnUse">
<stop stop-color="white" stop-opacity="0.61"/>
<stop offset="1" stop-color="white" stop-opacity="0.31"/>
</linearGradient>
<linearGradient id="paint46_linear_155:527" x1="218.507" y1="39.4262" x2="40.2587" y2="218.09" gradientUnits="userSpaceOnUse">
<stop stop-color="white" stop-opacity="0.61"/>
<stop offset="1" stop-color="white" stop-opacity="0.31"/>
</linearGradient>
<linearGradient id="paint47_linear_155:527" x1="218.507" y1="39.4262" x2="40.2587" y2="218.09" gradientUnits="userSpaceOnUse">
<stop stop-color="white" stop-opacity="0.61"/>
<stop offset="1" stop-color="white" stop-opacity="0.31"/>
</linearGradient>
<linearGradient id="paint48_linear_155:527" x1="218.507" y1="39.4262" x2="40.2587" y2="218.09" gradientUnits="userSpaceOnUse">
<stop stop-color="white" stop-opacity="0.61"/>
<stop offset="1" stop-color="white" stop-opacity="0.31"/>
</linearGradient>
<linearGradient id="paint49_linear_155:527" x1="218.507" y1="39.4262" x2="40.2587" y2="218.09" gradientUnits="userSpaceOnUse">
<stop stop-color="white" stop-opacity="0.61"/>
<stop offset="1" stop-color="white" stop-opacity="0.31"/>
</linearGradient>
<linearGradient id="paint50_linear_155:527" x1="218.507" y1="39.4262" x2="40.2587" y2="218.09" gradientUnits="userSpaceOnUse">
<stop stop-color="white" stop-opacity="0.61"/>
<stop offset="1" stop-color="white" stop-opacity="0.31"/>
</linearGradient>
<linearGradient id="paint51_linear_155:527" x1="218.507" y1="39.4262" x2="40.2587" y2="218.09" gradientUnits="userSpaceOnUse">
<stop stop-color="white" stop-opacity="0.61"/>
<stop offset="1" stop-color="white" stop-opacity="0.31"/>
</linearGradient>
<linearGradient id="paint52_linear_155:527" x1="218.507" y1="39.4262" x2="40.2587" y2="218.09" gradientUnits="userSpaceOnUse">
<stop stop-color="white" stop-opacity="0.61"/>
<stop offset="1" stop-color="white" stop-opacity="0.31"/>
</linearGradient>
<linearGradient id="paint53_linear_155:527" x1="218.507" y1="39.4262" x2="40.2587" y2="218.09" gradientUnits="userSpaceOnUse">
<stop stop-color="white" stop-opacity="0.61"/>
<stop offset="1" stop-color="white" stop-opacity="0.31"/>
</linearGradient>
<linearGradient id="paint54_linear_155:527" x1="218.507" y1="39.4262" x2="40.2587" y2="218.09" gradientUnits="userSpaceOnUse">
<stop stop-color="white" stop-opacity="0.61"/>
<stop offset="1" stop-color="white" stop-opacity="0.31"/>
</linearGradient>
<linearGradient id="paint55_linear_155:527" x1="218.507" y1="39.4262" x2="40.2587" y2="218.09" gradientUnits="userSpaceOnUse">
<stop stop-color="white" stop-opacity="0.61"/>
<stop offset="1" stop-color="white" stop-opacity="0.31"/>
</linearGradient>
<linearGradient id="paint56_linear_155:527" x1="218.507" y1="39.4262" x2="40.2587" y2="218.09" gradientUnits="userSpaceOnUse">
<stop stop-color="white" stop-opacity="0.61"/>
<stop offset="1" stop-color="white" stop-opacity="0.31"/>
</linearGradient>
<linearGradient id="paint57_linear_155:527" x1="218.507" y1="39.4262" x2="40.2587" y2="218.09" gradientUnits="userSpaceOnUse">
<stop stop-color="white" stop-opacity="0.61"/>
<stop offset="1" stop-color="white" stop-opacity="0.31"/>
</linearGradient>
<linearGradient id="paint58_linear_155:527" x1="218.507" y1="39.4262" x2="40.2587" y2="218.09" gradientUnits="userSpaceOnUse">
<stop stop-color="white" stop-opacity="0.61"/>
<stop offset="1" stop-color="white" stop-opacity="0.31"/>
</linearGradient>
<linearGradient id="paint59_linear_155:527" x1="218.507" y1="39.4262" x2="40.2587" y2="218.09" gradientUnits="userSpaceOnUse">
<stop stop-color="white" stop-opacity="0.61"/>
<stop offset="1" stop-color="white" stop-opacity="0.31"/>
</linearGradient>
<linearGradient id="paint60_linear_155:527" x1="218.507" y1="39.4262" x2="40.2587" y2="218.09" gradientUnits="userSpaceOnUse">
<stop stop-color="white" stop-opacity="0.61"/>
<stop offset="1" stop-color="white" stop-opacity="0.31"/>
</linearGradient>
<linearGradient id="paint61_linear_155:527" x1="218.507" y1="39.4262" x2="40.2587" y2="218.09" gradientUnits="userSpaceOnUse">
<stop stop-color="white" stop-opacity="0.61"/>
<stop offset="1" stop-color="white" stop-opacity="0.31"/>
</linearGradient>
<linearGradient id="paint62_linear_155:527" x1="218.507" y1="39.4262" x2="40.2587" y2="218.09" gradientUnits="userSpaceOnUse">
<stop stop-color="white" stop-opacity="0.61"/>
<stop offset="1" stop-color="white" stop-opacity="0.31"/>
</linearGradient>
<linearGradient id="paint63_linear_155:527" x1="218.507" y1="39.4262" x2="40.2587" y2="218.09" gradientUnits="userSpaceOnUse">
<stop stop-color="white" stop-opacity="0.61"/>
<stop offset="1" stop-color="white" stop-opacity="0.31"/>
</linearGradient>
<linearGradient id="paint64_linear_155:527" x1="218.507" y1="39.4262" x2="40.2587" y2="218.09" gradientUnits="userSpaceOnUse">
<stop stop-color="white" stop-opacity="0.61"/>
<stop offset="1" stop-color="white" stop-opacity="0.31"/>
</linearGradient>
<linearGradient id="paint65_linear_155:527" x1="218.507" y1="39.4262" x2="40.2587" y2="218.09" gradientUnits="userSpaceOnUse">
<stop stop-color="white" stop-opacity="0.61"/>
<stop offset="1" stop-color="white" stop-opacity="0.31"/>
</linearGradient>
<linearGradient id="paint66_linear_155:527" x1="218.507" y1="39.4262" x2="40.2587" y2="218.09" gradientUnits="userSpaceOnUse">
<stop stop-color="white" stop-opacity="0.61"/>
<stop offset="1" stop-color="white" stop-opacity="0.31"/>
</linearGradient>
<linearGradient id="paint67_linear_155:527" x1="218.507" y1="39.4262" x2="40.2587" y2="218.09" gradientUnits="userSpaceOnUse">
<stop stop-color="white" stop-opacity="0.61"/>
<stop offset="1" stop-color="white" stop-opacity="0.31"/>
</linearGradient>
<linearGradient id="paint68_linear_155:527" x1="218.507" y1="39.4262" x2="40.2587" y2="218.09" gradientUnits="userSpaceOnUse">
<stop stop-color="white" stop-opacity="0.61"/>
<stop offset="1" stop-color="white" stop-opacity="0.31"/>
</linearGradient>
<linearGradient id="paint69_linear_155:527" x1="218.507" y1="39.4262" x2="40.2587" y2="218.09" gradientUnits="userSpaceOnUse">
<stop stop-color="white" stop-opacity="0.61"/>
<stop offset="1" stop-color="white" stop-opacity="0.31"/>
</linearGradient>
<linearGradient id="paint70_linear_155:527" x1="218.507" y1="39.4262" x2="40.2587" y2="218.09" gradientUnits="userSpaceOnUse">
<stop stop-color="white" stop-opacity="0.61"/>
<stop offset="1" stop-color="white" stop-opacity="0.31"/>
</linearGradient>
<linearGradient id="paint71_linear_155:527" x1="218.507" y1="39.4262" x2="40.2587" y2="218.09" gradientUnits="userSpaceOnUse">
<stop stop-color="white" stop-opacity="0.61"/>
<stop offset="1" stop-color="white" stop-opacity="0.31"/>
</linearGradient>
<linearGradient id="paint72_linear_155:527" x1="218.507" y1="39.4262" x2="40.2587" y2="218.09" gradientUnits="userSpaceOnUse">
<stop stop-color="white" stop-opacity="0.61"/>
<stop offset="1" stop-color="white" stop-opacity="0.31"/>
</linearGradient>
<linearGradient id="paint73_linear_155:527" x1="218.507" y1="39.4262" x2="40.2587" y2="218.09" gradientUnits="userSpaceOnUse">
<stop stop-color="white" stop-opacity="0.61"/>
<stop offset="1" stop-color="white" stop-opacity="0.31"/>
</linearGradient>
</defs>
</svg>
